<svg width="52" height="52" viewBox="0 0 52 52" fill="none" xmlns="http://www.w3.org/2000/svg">
<path d="M26.0058 12.6679C18.6278 12.6679 12.6766 18.6203 12.6766 26C12.6766 33.3797 18.6278 39.3321 26.0058 39.3321C33.3838 39.3321 39.335 33.3797 39.335 26C39.335 18.6203 33.3838 12.6679 26.0058 12.6679ZM26.0058 34.6676C21.2379 34.6676 17.3401 30.7805 17.3401 26C17.3401 21.2195 21.2263 17.3324 26.0058 17.3324C30.7853 17.3324 34.6715 21.2195 34.6715 26C34.6715 30.7805 30.7737 34.6676 26.0058 34.6676ZM42.9892 12.1225C42.9892 13.8514 41.5971 15.2322 39.8802 15.2322C38.1517 15.2322 36.7712 13.8398 36.7712 12.1225C36.7712 10.4052 38.1633 9.01283 39.8802 9.01283C41.5971 9.01283 42.9892 10.4052 42.9892 12.1225ZM51.8173 15.2786C51.6201 11.113 50.6688 7.42318 47.6178 4.38313C44.5785 1.34308 40.8895 0.39161 36.7248 0.182751C32.4326 -0.0609171 19.5674 -0.0609171 15.2752 0.182751C11.1221 0.380007 7.43313 1.33147 4.38215 4.37153C1.33118 7.41158 0.391523 11.1014 0.182711 15.267C-0.0609035 19.5602 -0.0609035 32.4282 0.182711 36.7214C0.379922 40.887 1.33118 44.5768 4.38215 47.6169C7.43313 50.6569 11.1105 51.6084 15.2752 51.8172C19.5674 52.0609 32.4326 52.0609 36.7248 51.8172C40.8895 51.62 44.5785 50.6685 47.6178 47.6169C50.6572 44.5768 51.6085 40.887 51.8173 36.7214C52.0609 32.4282 52.0609 19.5718 51.8173 15.2786ZM46.2722 41.3279C45.3673 43.6021 43.6156 45.3542 41.3303 46.2709C37.9081 47.6285 29.7876 47.3152 26.0058 47.3152C22.224 47.3152 14.0919 47.6169 10.6813 46.2709C8.40759 45.3658 6.65588 43.6137 5.73943 41.3279C4.38215 37.9049 4.69537 29.7827 4.69537 26C4.69537 22.2173 4.39375 14.0835 5.73943 10.6721C6.64428 8.39786 8.39598 6.64577 10.6813 5.72911C14.1035 4.37153 22.224 4.68481 26.0058 4.68481C29.7876 4.68481 37.9197 4.38313 41.3303 5.72911C43.604 6.63416 45.3557 8.38625 46.2722 10.6721C47.6294 14.0951 47.3162 22.2173 47.3162 26C47.3162 29.7827 47.6294 37.9165 46.2722 41.3279Z" fill="#21E18C"/>
</svg>
