<svg width="52" height="52" viewBox="0 0 52 52" fill="none" xmlns="http://www.w3.org/2000/svg">
<path d="M46.4286 0H5.57143C4.09379 0 2.67668 0.586988 1.63183 1.63183C0.586988 2.67668 0 4.09379 0 5.57143L0 46.4286C0 47.9062 0.586988 49.3233 1.63183 50.3682C2.67668 51.413 4.09379 52 5.57143 52H21.5022V34.3212H14.1897V26H21.5022V19.6579C21.5022 12.444 25.7969 8.45929 32.3746 8.45929C35.5248 8.45929 38.8189 9.02107 38.8189 9.02107V16.1014H35.1894C31.6132 16.1014 30.4978 18.3207 30.4978 20.5969V26H38.4812L37.2044 34.3212H30.4978V52H46.4286C47.9062 52 49.3233 51.413 50.3682 50.3682C51.413 49.3233 52 47.9062 52 46.4286V5.57143C52 4.09379 51.413 2.67668 50.3682 1.63183C49.3233 0.586988 47.9062 0 46.4286 0V0Z" fill="#21E18C"/>
</svg>
